<svg width="76" height="41" viewBox="0 0 76 41" fill="none" xmlns="http://www.w3.org/2000/svg">
<path d="M16.4545 23V6.2H12.7585V12.848H5.94247V6.2H2.24647V23H5.94247V16.256H12.7585V23H16.4545ZM37.5928 14.6V14.552C37.5928 9.776 33.8728 5.912 28.6888 5.912C23.5048 5.912 19.7368 9.824 19.7368 14.6V14.648C19.7368 19.424 23.4568 23.288 28.6408 23.288C33.8248 23.288 37.5928 19.376 37.5928 14.6ZM33.7288 14.648C33.7288 17.528 31.6648 19.88 28.6888 19.88C25.7128 19.88 23.6008 17.48 23.6008 14.6V14.552C23.6008 11.672 25.6648 9.32 28.6408 9.32C31.6168 9.32 33.7288 11.72 33.7288 14.6V14.648ZM57.6715 23V6.2H53.6875L49.2715 13.304L44.8555 6.2H40.8715V23H44.4955V12.104L49.1755 19.208H49.2715L53.9995 12.032V23H57.6715ZM74.4994 23V19.712H65.3794V16.184H73.2994V12.896H65.3794V9.488H74.3794V6.2H61.7074V23H74.4994ZM11.105 32.779L10.533 32.218C10.1663 32.57 9.79229 32.845 9.41096 33.043C9.02963 33.2337 8.57496 33.329 8.04696 33.329C7.62163 33.329 7.22563 33.2483 6.85896 33.087C6.49963 32.9183 6.18429 32.691 5.91296 32.405C5.64896 32.119 5.43996 31.7817 5.28596 31.393C5.13929 31.0043 5.06596 30.5863 5.06596 30.139C5.06596 29.6917 5.13929 29.2773 5.28596 28.896C5.43996 28.5073 5.64896 28.17 5.91296 27.884C6.18429 27.598 6.49963 27.3743 6.85896 27.213C7.22563 27.0517 7.62163 26.971 8.04696 26.971C8.57496 26.971 9.02596 27.07 9.39996 27.268C9.78129 27.466 10.137 27.719 10.467 28.027L11.061 27.389C10.8703 27.2057 10.6723 27.0407 10.467 26.894C10.2616 26.74 10.038 26.6117 9.79596 26.509C9.55396 26.399 9.28996 26.3147 9.00396 26.256C8.72529 26.1973 8.40996 26.168 8.05796 26.168C7.49329 26.168 6.97263 26.2743 6.49596 26.487C6.01929 26.6923 5.60863 26.9783 5.26396 27.345C4.91929 27.7043 4.64796 28.126 4.44996 28.61C4.25929 29.094 4.16396 29.611 4.16396 30.161C4.16396 30.7183 4.25929 31.239 4.44996 31.723C4.64796 32.207 4.91929 32.6287 5.26396 32.988C5.60863 33.34 6.01563 33.6187 6.48496 33.824C6.95429 34.0293 7.46763 34.132 8.02496 34.132C8.37696 34.132 8.69596 34.099 8.98196 34.033C9.26796 33.967 9.53563 33.8753 9.78496 33.758C10.0343 33.6407 10.2653 33.5013 10.478 33.34C10.698 33.1713 10.907 32.9843 11.105 32.779ZM19.7211 34H24.9241V33.197H20.5901V26.3H19.7211V34ZM40.6992 30.139C40.6992 29.6037 40.6038 29.0977 40.4132 28.621C40.2298 28.137 39.9658 27.7153 39.6212 27.356C39.2765 26.9893 38.8622 26.6997 38.3782 26.487C37.9015 26.2743 37.3698 26.168 36.7832 26.168C36.1965 26.168 35.6612 26.278 35.1772 26.498C34.6932 26.7107 34.2788 27.0003 33.9342 27.367C33.5895 27.7337 33.3218 28.159 33.1312 28.643C32.9405 29.1197 32.8452 29.6257 32.8452 30.161C32.8452 30.6963 32.9368 31.206 33.1202 31.69C33.3108 32.1667 33.5785 32.5883 33.9232 32.955C34.2678 33.3143 34.6785 33.6003 35.1552 33.813C35.6392 34.0257 36.1745 34.132 36.7612 34.132C37.3478 34.132 37.8832 34.0257 38.3672 33.813C38.8512 33.593 39.2655 33.2997 39.6102 32.933C39.9548 32.5663 40.2225 32.1447 40.4132 31.668C40.6038 31.184 40.6992 30.6743 40.6992 30.139ZM39.7972 30.161C39.7972 30.601 39.7202 31.0153 39.5662 31.404C39.4195 31.7853 39.2142 32.119 38.9502 32.405C38.6862 32.691 38.3672 32.9183 37.9932 33.087C37.6265 33.2483 37.2232 33.329 36.7832 33.329C36.3432 33.329 35.9362 33.2447 35.5622 33.076C35.1955 32.9073 34.8765 32.68 34.6052 32.394C34.3338 32.108 34.1212 31.7707 33.9672 31.382C33.8205 30.9933 33.7472 30.579 33.7472 30.139C33.7472 29.699 33.8205 29.2883 33.9672 28.907C34.1212 28.5183 34.3302 28.181 34.5942 27.895C34.8582 27.609 35.1735 27.3853 35.5402 27.224C35.9142 27.0553 36.3212 26.971 36.7612 26.971C37.2012 26.971 37.6045 27.0553 37.9712 27.224C38.3452 27.3927 38.6678 27.62 38.9392 27.906C39.2105 28.192 39.4195 28.5293 39.5662 28.918C39.7202 29.3067 39.7972 29.721 39.7972 30.161ZM55.9189 26.3H55.0499V30.777C55.0499 31.6203 54.8409 32.2547 54.4229 32.68C54.0049 33.1053 53.4402 33.318 52.7289 33.318C51.9882 33.318 51.4089 33.0943 50.9909 32.647C50.5802 32.1997 50.3749 31.558 50.3749 30.722V26.3H49.5059V30.777C49.5059 31.3197 49.5829 31.8 49.7369 32.218C49.8909 32.636 50.1072 32.988 50.3859 33.274C50.6719 33.5527 51.0092 33.7653 51.3979 33.912C51.7939 34.0513 52.2302 34.121 52.7069 34.121C53.1909 34.121 53.6272 34.0513 54.0159 33.912C54.4119 33.7653 54.7492 33.549 55.0279 33.263C55.3139 32.977 55.5339 32.6213 55.6879 32.196C55.8419 31.7707 55.9189 31.2757 55.9189 30.711V26.3ZM71.8335 30.139C71.8335 29.5963 71.7345 29.0903 71.5365 28.621C71.3385 28.1517 71.0562 27.7447 70.6895 27.4C70.3302 27.0553 69.8975 26.7877 69.3915 26.597C68.8929 26.399 68.3429 26.3 67.7415 26.3H65.0685V34H67.7415C68.3429 34 68.8929 33.901 69.3915 33.703C69.8975 33.505 70.3302 33.2337 70.6895 32.889C71.0562 32.5443 71.3385 32.1373 71.5365 31.668C71.7345 31.1913 71.8335 30.6817 71.8335 30.139ZM70.9315 30.161C70.9315 30.5937 70.8545 30.9933 70.7005 31.36C70.5539 31.7267 70.3412 32.0493 70.0625 32.328C69.7912 32.5993 69.4575 32.812 69.0615 32.966C68.6655 33.12 68.2255 33.197 67.7415 33.197H65.9375V27.103H67.7415C68.2255 27.103 68.6655 27.1837 69.0615 27.345C69.4575 27.499 69.7912 27.7153 70.0625 27.994C70.3412 28.2653 70.5539 28.588 70.7005 28.962C70.8545 29.336 70.9315 29.7357 70.9315 30.161Z" fill="#1070FF"/>
</svg>
