<svg width="73" height="30" viewBox="0 0 73 30" fill="none" xmlns="http://www.w3.org/2000/svg">
<path d="M14.4545 18V1.2H10.7585V7.848H3.94247V1.2H0.246469V18H3.94247V11.256H10.7585V18H14.4545ZM35.5928 9.6V9.552C35.5928 4.776 31.8728 0.912 26.6888 0.912C21.5048 0.912 17.7368 4.824 17.7368 9.6V9.648C17.7368 14.424 21.4568 18.288 26.6408 18.288C31.8248 18.288 35.5928 14.376 35.5928 9.6ZM31.7288 9.648C31.7288 12.528 29.6648 14.88 26.6888 14.88C23.7128 14.88 21.6008 12.48 21.6008 9.6V9.552C21.6008 6.672 23.6648 4.32 26.6408 4.32C29.6168 4.32 31.7288 6.72 31.7288 9.6V9.648ZM55.6715 18V1.2H51.6875L47.2715 8.304L42.8555 1.2H38.8715V18H42.4955V7.104L47.1755 14.208H47.2715L51.9995 7.032V18H55.6715ZM72.4994 18V14.712H63.3794V11.184H71.2994V7.896H63.3794V4.488H72.3794V1.2H59.7074V18H72.4994ZM9.10496 27.779L8.53296 27.218C8.16629 27.57 7.79229 27.845 7.41096 28.043C7.02963 28.2337 6.57496 28.329 6.04696 28.329C5.62163 28.329 5.22563 28.2483 4.85896 28.087C4.49963 27.9183 4.18429 27.691 3.91296 27.405C3.64896 27.119 3.43996 26.7817 3.28596 26.393C3.13929 26.0043 3.06596 25.5863 3.06596 25.139C3.06596 24.6917 3.13929 24.2773 3.28596 23.896C3.43996 23.5073 3.64896 23.17 3.91296 22.884C4.18429 22.598 4.49963 22.3743 4.85896 22.213C5.22563 22.0517 5.62163 21.971 6.04696 21.971C6.57496 21.971 7.02596 22.07 7.39996 22.268C7.78129 22.466 8.13696 22.719 8.46696 23.027L9.06096 22.389C8.87029 22.2057 8.67229 22.0407 8.46696 21.894C8.26163 21.74 8.03796 21.6117 7.79596 21.509C7.55396 21.399 7.28996 21.3147 7.00396 21.256C6.72529 21.1973 6.40996 21.168 6.05796 21.168C5.49329 21.168 4.97263 21.2743 4.49596 21.487C4.01929 21.6923 3.60863 21.9783 3.26396 22.345C2.91929 22.7043 2.64796 23.126 2.44996 23.61C2.25929 24.094 2.16396 24.611 2.16396 25.161C2.16396 25.7183 2.25929 26.239 2.44996 26.723C2.64796 27.207 2.91929 27.6287 3.26396 27.988C3.60863 28.34 4.01563 28.6187 4.48496 28.824C4.95429 29.0293 5.46763 29.132 6.02496 29.132C6.37696 29.132 6.69596 29.099 6.98196 29.033C7.26796 28.967 7.53563 28.8753 7.78496 28.758C8.03429 28.6407 8.26529 28.5013 8.47796 28.34C8.69796 28.1713 8.90696 27.9843 9.10496 27.779ZM17.7211 29H22.9241V28.197H18.5901V21.3H17.7211V29ZM38.6992 25.139C38.6992 24.6037 38.6038 24.0977 38.4132 23.621C38.2298 23.137 37.9658 22.7153 37.6212 22.356C37.2765 21.9893 36.8622 21.6997 36.3782 21.487C35.9015 21.2743 35.3698 21.168 34.7832 21.168C34.1965 21.168 33.6612 21.278 33.1772 21.498C32.6932 21.7107 32.2788 22.0003 31.9342 22.367C31.5895 22.7337 31.3218 23.159 31.1312 23.643C30.9405 24.1197 30.8452 24.6257 30.8452 25.161C30.8452 25.6963 30.9368 26.206 31.1202 26.69C31.3108 27.1667 31.5785 27.5883 31.9232 27.955C32.2678 28.3143 32.6785 28.6003 33.1552 28.813C33.6392 29.0257 34.1745 29.132 34.7612 29.132C35.3478 29.132 35.8832 29.0257 36.3672 28.813C36.8512 28.593 37.2655 28.2997 37.6102 27.933C37.9548 27.5663 38.2225 27.1447 38.4132 26.668C38.6038 26.184 38.6992 25.6743 38.6992 25.139ZM37.7972 25.161C37.7972 25.601 37.7202 26.0153 37.5662 26.404C37.4195 26.7853 37.2142 27.119 36.9502 27.405C36.6862 27.691 36.3672 27.9183 35.9932 28.087C35.6265 28.2483 35.2232 28.329 34.7832 28.329C34.3432 28.329 33.9362 28.2447 33.5622 28.076C33.1955 27.9073 32.8765 27.68 32.6052 27.394C32.3338 27.108 32.1212 26.7707 31.9672 26.382C31.8205 25.9933 31.7472 25.579 31.7472 25.139C31.7472 24.699 31.8205 24.2883 31.9672 23.907C32.1212 23.5183 32.3302 23.181 32.5942 22.895C32.8582 22.609 33.1735 22.3853 33.5402 22.224C33.9142 22.0553 34.3212 21.971 34.7612 21.971C35.2012 21.971 35.6045 22.0553 35.9712 22.224C36.3452 22.3927 36.6678 22.62 36.9392 22.906C37.2105 23.192 37.4195 23.5293 37.5662 23.918C37.7202 24.3067 37.7972 24.721 37.7972 25.161ZM53.9189 21.3H53.0499V25.777C53.0499 26.6203 52.8409 27.2547 52.4229 27.68C52.0049 28.1053 51.4402 28.318 50.7289 28.318C49.9882 28.318 49.4089 28.0943 48.9909 27.647C48.5802 27.1997 48.3749 26.558 48.3749 25.722V21.3H47.5059V25.777C47.5059 26.3197 47.5829 26.8 47.7369 27.218C47.8909 27.636 48.1072 27.988 48.3859 28.274C48.6719 28.5527 49.0092 28.7653 49.3979 28.912C49.7939 29.0513 50.2302 29.121 50.7069 29.121C51.1909 29.121 51.6272 29.0513 52.0159 28.912C52.4119 28.7653 52.7492 28.549 53.0279 28.263C53.3139 27.977 53.5339 27.6213 53.6879 27.196C53.8419 26.7707 53.9189 26.2757 53.9189 25.711V21.3ZM69.8335 25.139C69.8335 24.5963 69.7345 24.0903 69.5365 23.621C69.3385 23.1517 69.0562 22.7447 68.6895 22.4C68.3302 22.0553 67.8975 21.7877 67.3915 21.597C66.8929 21.399 66.3429 21.3 65.7415 21.3H63.0685V29H65.7415C66.3429 29 66.8929 28.901 67.3915 28.703C67.8975 28.505 68.3302 28.2337 68.6895 27.889C69.0562 27.5443 69.3385 27.1373 69.5365 26.668C69.7345 26.1913 69.8335 25.6817 69.8335 25.139ZM68.9315 25.161C68.9315 25.5937 68.8545 25.9933 68.7005 26.36C68.5539 26.7267 68.3412 27.0493 68.0625 27.328C67.7912 27.5993 67.4575 27.812 67.0615 27.966C66.6655 28.12 66.2255 28.197 65.7415 28.197H63.9375V22.103H65.7415C66.2255 22.103 66.6655 22.1837 67.0615 22.345C67.4575 22.499 67.7912 22.7153 68.0625 22.994C68.3412 23.2653 68.5539 23.588 68.7005 23.962C68.8545 24.336 68.9315 24.7357 68.9315 25.161Z" fill="white"/>
</svg>
